<?xml version="1.0" encoding="utf-8"?>
<!-- Generator: Adobe Illustrator 27.9.0, SVG Export Plug-In . SVG Version: 6.00 Build 0)  -->
<svg version="1.1" id="Layer_1" xmlns="http://www.w3.org/2000/svg" xmlns:xlink="http://www.w3.org/1999/xlink" x="0px" y="0px"
	 viewBox="0 0 192 192" style="enable-background:new 0 0 192 192;" xml:space="preserve">
<style type="text/css">
	.st0{fill:#0D0A33;}
	.st1{fill:#EBCF3D;}
</style>
<path class="st0" d="M56.3,123.6c21.3,35.8,74.8,38.9,97.3-3.8c5.4,2.5,10.5,5.8,16.2,7.1c5.5,1.2,11.4,0.3,17.2,0.3
	c-5,25.2-36,55.4-72.8,58.8c-26.9,2.4-51.2-4.4-71.5-22.8c-9.7-8.9-17.5-19.3-22-32.6c13.1-0.6,23.1-5.8,30.5-17
	C53.1,117.3,54.6,120.3,56.3,123.6z"/>
<path class="st0" d="M160.2,26.7c11.9,9.1,19.7,20.7,25.9,33.7c-6.6,0.6-12.8,0.6-18.5,2.1c-4.3,1.1-8.3,4-12.1,6.7
	c-2.5,1.8-3.6,1.8-5.4-0.9c-11.1-16.6-26.5-26-46.6-26.3c-21-0.3-42.2,14.2-50.2,33.6c-0.5,1.2-1,2.3-1.6,3.6
	C36.2,63.1,36.2,66.1,20.8,62c9.5-22.3,25-38.6,47-47.7C100.5,0.8,131.6,5.1,160.2,26.7z"/>
<path class="st0" d="M40.5,79.3c7.2,5.9,10,13.4,8,22c-1.8,8.3-7.2,13.7-15.5,16c-12,3.4-23.4-4-26.5-17c-2.5-10.8,5.3-22,16.5-24.6
	C29.5,74.3,34.9,76.3,40.5,79.3z"/>
<path class="st1" d="M70.7,125.2c-3.2-4.3-6.1-8.4-8.5-11.8c5.3-3,10-5.7,14.7-8.4c5,9.3,12.2,16.5,24.6,15.9
	c7.4-0.3,16.6-4.8,20.4-13.7c5.6,1.4,11.1,2.7,16.6,4.1C129.2,138.8,92.1,147.2,70.7,125.2z"/>
<path class="st1" d="M65.8,82c-1.5-0.1-2.6-0.2-3.7-0.3C67.6,65.2,83.7,57,96.1,56c23.1-1.8,35.7,11.2,41.6,23.9
	c-5.1,1.5-10.4,3-16.1,4.7C116.6,77,108.7,71.1,98,72.3c-10.1,1.1-17.6,7.1-20.9,16.3C73.2,86.2,69.7,84.1,65.8,82z"/>
<path class="st1" d="M70,87.5c6,3.7,7.8,10,4.2,14.7c-4.6,5.9-9.2,6.1-15.3,2c-3.9-2.6-4-7.3-2.4-10.8c1.3-2.8,4.9-4.7,7.8-6.3
	C65.7,86.4,67.9,87.2,70,87.5z"/>
</svg>
